<svg xmlns="http://www.w3.org/2000/svg" viewBox="0 0 395.52 184.252313503305" height="184.252313503305" width="395.52"><g><svg viewBox="0 0 395.52 184.252313503305" height="184.252313503305" width="395.52"><g><svg viewBox="0 0 395.52 184.252313503305" height="184.252313503305" width="395.52"><g id="textblocktransform"><svg viewBox="0 0 395.52 184.252313503305" height="184.252313503305" width="395.52" id="textblock"><g><svg viewBox="0 0 395.52 184.252313503305" height="184.252313503305" width="395.52"><g transform="matrix(1,0,0,1,0,0)"><svg width="395.52" viewBox="-0.07 -35.64 77.55999999999999 36.13" height="184.252313503305" data-palette-color="#0072ff"><path d="M13.99 0L13.99 0Q14.01-0.15 14.01-0.24 14.01-0.34 14.01-0.54L14.01-0.54Q14.01-1.25 13.89-2.32 13.77-3.39 13.51-4.68 13.26-5.96 12.89-7.39 12.52-8.81 12.06-10.22 11.6-11.62 11.01-12.92 10.42-14.21 9.75-15.26 9.08-16.31 8.3-17.02 7.52-17.72 6.67-17.94L6.67-17.94Q7.01-18.07 7.14-18.42 7.28-18.77 7.28-19.29L7.28-19.29Q7.28-20.24 7.12-21.3 6.96-22.36 6.57-23.43 6.18-24.49 5.52-25.48 4.86-26.46 3.88-27.32L3.88-27.32Q3.59-27.56 3.11-27.83 2.64-28.1 2.09-28.32 1.54-28.54 0.98-28.67 0.42-28.81-0.07-28.81L-0.07-28.81Q0.05-29.39 0.11-30.16 0.17-30.93 0.17-31.81L0.17-31.81Q0.17-32.76 0.11-33.65 0.05-34.55-0.07-35.16L-0.07-35.16Q0.83-35.01 2.04-34.86 3.25-34.72 4.61-34.58 5.98-34.45 7.46-34.38 8.94-34.3 10.42-34.3L10.42-34.3Q11.96-34.3 13.46-34.35 14.97-34.4 16.33-34.51 17.7-34.62 18.88-34.78 20.07-34.94 21-35.16L21-35.16Q20.92-34.74 20.86-33.85 20.8-32.96 20.8-31.86L20.8-31.86Q20.8-31.42 20.81-30.93 20.83-30.44 20.85-30.02 20.87-29.59 20.91-29.27 20.95-28.96 21-28.81L21-28.81Q20-28.81 19.08-28.76 18.16-28.71 17.46-28.52 16.75-28.32 16.32-27.94 15.89-27.56 15.89-26.88L15.89-26.88Q15.89-26.05 16.28-24.77 16.67-23.49 17.27-21.91 17.87-20.34 18.62-18.57 19.36-16.8 20.06-14.99 20.75-13.18 21.34-11.44 21.92-9.69 22.22-8.18L22.22-8.18Q22.56-9.52 23.18-11.19 23.8-12.87 24.54-14.66 25.27-16.46 26.01-18.29 26.76-20.12 27.38-21.75 28-23.39 28.39-24.76 28.78-26.12 28.78-27L28.78-27Q28.78-27.69 28.42-28.05 28.05-28.42 27.48-28.59 26.9-28.76 26.18-28.78 25.46-28.81 24.76-28.81L24.76-28.81Q24.78-28.96 24.82-29.28 24.85-29.61 24.88-30.03 24.9-30.44 24.93-30.92 24.95-31.4 24.95-31.86L24.95-31.86Q24.95-32.96 24.89-33.85 24.83-34.74 24.76-35.16L24.76-35.16Q26.81-34.69 28.89-34.5 30.98-34.3 33.13-34.3L33.13-34.3Q35.42-34.3 37.56-34.5 39.7-34.69 41.67-35.16L41.67-35.16Q41.53-34.55 41.48-33.65 41.43-32.76 41.43-31.81L41.43-31.81Q41.43-30.93 41.49-30.16 41.55-29.39 41.67-28.81L41.67-28.81Q41.33-28.81 40.83-28.72 40.33-28.64 39.81-28.45 39.28-28.27 38.76-27.99 38.23-27.71 37.82-27.29L37.82-27.29Q37.06-26.59 36.45-25.6 35.84-24.61 35.4-23.52 34.96-22.44 34.73-21.34 34.5-20.24 34.5-19.29L34.5-19.29Q34.5-18.87 34.62-18.46 34.74-18.04 35.03-17.94L35.03-17.94Q34.08-17.7 33.17-16.66 32.25-15.63 31.45-14.11 30.64-12.6 29.97-10.75 29.3-8.91 28.81-7.09 28.32-5.27 28.05-3.61 27.78-1.95 27.78-0.78L27.78-0.78 27.78 0Q26.83-0.32 25-0.46 23.17-0.61 20.97-0.61L20.97-0.61Q20.04-0.61 19.04-0.57 18.04-0.54 17.09-0.46 16.14-0.39 15.33-0.28 14.53-0.17 13.99 0ZM45.19 0L45.19 0Q45.24-0.2 45.32-0.71 45.41-1.22 45.48-1.92 45.55-2.61 45.62-3.41 45.68-4.2 45.68-4.96L45.68-4.96Q45.68-6.98 45.52-8.52 45.36-10.06 45.19-10.62L45.19-10.62Q46.58-10.4 47.8-10.33 49.02-10.25 50.19-10.25L50.19-10.25Q52.34-10.25 54-10.62L54-10.62Q54-9.55 54.51-8.58 55.03-7.62 55.94-6.91 56.86-6.2 58.14-5.79 59.42-5.37 60.98-5.37L60.98-5.37Q62.03-5.37 63.11-5.48 64.18-5.59 65.05-5.96 65.92-6.32 66.45-7.01 66.99-7.69 66.99-8.84L66.99-8.84Q66.99-9.67 66.49-10.56 65.99-11.45 64.93-12.16 63.86-12.87 62.19-13.33 60.52-13.79 58.18-13.79L58.18-13.79Q56.17-13.79 54.21-13.68 52.24-13.57 49.95-12.99L49.95-12.99Q49.9-13.72 49.42-14.6 48.95-15.48 48.2-16.25 47.46-17.02 46.49-17.54 45.53-18.07 44.53-18.07L44.53-18.07 44.28-18.07Q44.58-18.19 44.8-18.63 45.02-19.07 45.15-19.7 45.29-20.34 45.36-21.11 45.43-21.88 45.43-22.68L45.43-22.68Q45.43-24.71 45.22-26.32 45.02-27.93 44.63-28.61L44.63-28.61 44.8-28.61Q45.51-28.61 46.36-28.98 47.21-29.35 48.08-29.94 48.95-30.54 49.78-31.29 50.61-32.03 51.25-32.81 51.9-33.59 52.32-34.34 52.73-35.08 52.78-35.64L52.78-35.64Q53.15-35.42 53.7-35.19 54.25-34.96 55.06-34.75 55.88-34.55 57-34.42 58.13-34.3 59.67-34.3L59.67-34.3Q60.57-34.3 61.58-34.4 62.6-34.5 63.55-34.68 64.5-34.86 65.33-35.11 66.16-35.35 66.67-35.64L66.67-35.64Q66.87-34.89 67.33-34.09 67.8-33.3 68.43-32.74L68.43-32.74Q69.06-33.28 69.36-33.96 69.65-34.64 69.77-35.16L69.77-35.16Q70.14-34.94 70.87-34.8 71.6-34.67 72.78-34.67L72.78-34.67Q74.56-34.67 76.1-35.16L76.1-35.16Q76.05-34.96 75.97-34.4 75.9-33.84 75.83-33.11 75.75-32.37 75.71-31.54 75.66-30.71 75.66-29.96L75.66-29.96Q75.66-27.83 75.82-26.23 75.97-24.63 76.1-24.05L76.1-24.05Q74.85-24.27 73.75-24.34 72.65-24.41 71.56-24.41L71.56-24.41Q69.41-24.41 67.77-24.05L67.77-24.05Q67.77-25.17 67.26-26.17 66.75-27.17 65.83-27.93 64.91-28.69 63.63-29.11 62.35-29.54 60.79-29.54L60.79-29.54Q59.71-29.54 58.65-29.38 57.59-29.22 56.72-28.82 55.86-28.42 55.32-27.76 54.78-27.1 54.78-26.07L54.78-26.07Q54.78-25.22 55.21-24.41 55.64-23.61 56.61-22.97 57.59-22.34 59.19-21.95 60.79-21.56 63.13-21.56L63.13-21.56Q64.11-21.56 65.26-21.57 66.4-21.58 67.53-21.64 68.65-21.7 69.65-21.83 70.65-21.95 71.38-22.17L71.38-22.17Q71.46-21.44 71.99-20.51 72.53-19.58 73.35-18.76 74.17-17.94 75.19-17.4 76.22-16.85 77.24-16.85L77.24-16.85 77.49-16.85Q77.19-16.72 76.98-16.28 76.76-15.84 76.62-15.21 76.49-14.58 76.41-13.81 76.34-13.04 76.34-12.23L76.34-12.23Q76.34-11.23 76.39-10.3 76.44-9.38 76.55-8.59 76.66-7.81 76.8-7.21 76.95-6.62 77.15-6.3L77.15-6.3 76.98-6.3Q76.27-6.3 75.41-5.96 74.56-5.62 73.68-5.04 72.8-4.47 71.97-3.75 71.14-3.03 70.48-2.27 69.82-1.51 69.42-0.79 69.02-0.07 68.99 0.49L68.99 0.49Q68.63 0.27 68.08 0.07 67.53-0.12 66.71-0.28 65.89-0.44 64.77-0.52 63.64-0.61 62.11-0.61L62.11-0.61Q61.2-0.61 60.26-0.55 59.32-0.49 58.46-0.35 57.59-0.22 56.85-0.01 56.1 0.2 55.59 0.49L55.59 0.49Q55.37-0.27 54.92-0.98 54.47-1.68 53.83-2.2L53.83-2.2Q53.17-1.71 52.89-1.11 52.61-0.51 52.49 0L52.49 0Q52.29-0.1 51.87-0.21 51.44-0.32 50.9-0.4 50.36-0.49 49.75-0.55 49.14-0.61 48.56-0.61L48.56-0.61Q47.6-0.61 46.7-0.44 45.8-0.27 45.19 0Z" opacity="1" transform="matrix(1,0,0,1,0,0)" fill="#0072ff" class="wordmark-text-0" data-fill-palette-color="primary" id="text-0"/></svg></g></svg></g></svg></g></svg></g></svg></g><defs/></svg>